PathFileType	4	(X/Y/Z)	/Users/itak/Documents/Research/Walk-IL/dataset/trc/00398_00012.trc
DataRate	CameraRate	NumFrames	NumMarkers	Units	OrigDataRate	OrigDataStartFrame	OrigNumFrames
100.000000	100.000000	4	53	mm	100.000000	283	757
Frame#	Time	RPSI			LPSI			L3			STRN			T10			C7			CLAV			RBAK			LBAK			LSHO			LUPA			LAEL			LAOL			LWTS			LWPS			LFRA			LIFD			LHPS			LHTS			RSHO			RUPA			RAEL			RAOL			RWTS			RWPS			RFRA			RIFD			RHTS			RHPS			RBHD			LFHD			RFHD			LBHD			LHIP			RHIP			RASI			LASI			LKNE			LTHI			LANK			LTIP			LTOE			LMT1			LMT5			LHEE			RKNE			RTHI			RANK			RTIP			RTOE			RMT1			RMT5			RHEE			
		X1	Y1	Z1	X2	Y2	Z2	X3	Y3	Z3	X4	Y4	Z4	X5	Y5	Z5	X6	Y6	Z6	X7	Y7	Z7	X8	Y8	Z8	X9	Y9	Z9	X10	Y10	Z10	X11	Y11	Z11	X12	Y12	Z12	X13	Y13	Z13	X14	Y14	Z14	X15	Y15	Z15	X16	Y16	Z16	X17	Y17	Z17	X18	Y18	Z18	X19	Y19	Z19	X20	Y20	Z20	X21	Y21	Z21	X22	Y22	Z22	X23	Y23	Z23	X24	Y24	Z24	X25	Y25	Z25	X26	Y26	Z26	X27	Y27	Z27	X28	Y28	Z28	X29	Y29	Z29	X30	Y30	Z30	X31	Y31	Z31	X32	Y32	Z32	X33	Y33	Z33	X34	Y34	Z34	X35	Y35	Z35	X36	Y36	Z36	X37	Y37	Z37	X38	Y38	Z38	X39	Y39	Z39	X40	Y40	Z40	X41	Y41	Z41	X42	Y42	Z42	X43	Y43	Z43	X44	Y44	Z44	X45	Y45	Z45	X46	Y46	Z46	X47	Y47	Z47	X48	Y48	Z48	X49	Y49	Z49	X50	Y50	Z50	X51	Y51	Z51	X52	Y52	Z52	X53	Y53	Z53	

284	2.83	1221.29931640625	958.1578369140625	125.4722290039062	1094.9365234375	946.4945068359375	164.9462127685547	1155.1513671875	1035.017822265625	147.6669006347656	1091.263671875	1190.579467773438	-78.75817108154297	1147.79052734375	1138.25830078125	161.9952392578125	1121.434692382812	1387.069213867188	127.4725875854492	1097.942993164062	1309.598876953125	-25.47838401794434	1199.138916015625	1245.696655273438	160.9791107177734	1027.156494140625	1347.82861328125	166.2234344482422	959.2269897460938	1364.532592773438	92.07038116455078	900.3119506835938	1246.952514648438	134.3039703369141	863.3208618164062	1053.31494140625	112.9597702026367	937.0172119140625	1024.89111328125	151.3398132324219	873.7996215820312	916.2686767578125	-68.08327484130859	816.2656860351562	878.8970336914062	-21.79950523376465	843.0013427734375	969.3065185546875	63.57479858398438	851.6693725585938	764.1052856445312	-162.0650482177734	814.0478515625	819.7373657226562	-77.53443908691406	840.7235107421875	843.4782104492188	-130.2354888916016	1264.76513671875	1373.0732421875	43.50138092041016	1324.643310546875	1311.929809570312	52.41870498657227	1381.59326171875	1054.36083984375	64.97175598144531	1291.0693359375	1041.3466796875	88.12924194335938	1375.879760742188	824.0043334960938	-33.02871322631836	1437.681518554688	827.0032958984375	7.717529773712158	1405.08740234375	992.14501953125	45.25203704833984	1392.331909179688	652.7823486328125	4.392932891845703	1403.38232421875	720.3413696289062	-31.02316665649414	1444.452758789062	739.4227294921875	22.24002456665039	1192.067138671875	1576.792114257812	67.13288116455078	1011.800720214844	1576.296752929688	-19.73597717285156	1130.42041015625	1591.240844726562	-50.2499885559082	1043.276489257812	1553.45556640625	124.2456970214844	961.096923828125	930.3749389648438	110.3317947387695	1306.7861328125	950.3613891601562	7.331173896789551	1213.994873046875	956.9755859375	-99.18246459960938	966.3607177734375	933.3253173828125	-12.32917213439941	1049.257202148438	440.8563842773438	30.99773216247559	1013.694274902344	580.1634521484375	47.90433883666992	1170.198974609375	31.24919700622559	133.9003753662109	1107.237670898438	212.7532043457031	81.04998779296875	1225.281127929688	27.40774154663086	-83.91758728027344	1259.411010742188	31.42994689941406	-4.947864532470703	1154.2158203125	31.32426071166992	8.082751274108887	1226.77685546875	30.71176910400391	171.0261840820312	1258.434204101562	499.3835144042969	-193.5550384521484	1282.4013671875	746.9285278320312	-129.4244995117188	1333.818237304688	78.49443054199219	-133.1466369628906	1268.656494140625	370.6813049316406	-202.0532684326172	1245.824340820312	58.12050247192383	-289.1938171386719	1226.821166992188	49.70910263061523	-214.8748168945312	1327.277221679688	59.25966262817383	-215.7882690429688	1296.14599609375	57.6737174987793	-52.09535217285156	
285	2.84	1222.195678710938	957.6568603515625	114.596549987793	1096.635131835938	946.1356811523438	156.5527801513672	1156.452270507812	1034.375244140625	138.3816986083984	1087.904296875	1189.51708984375	-87.07931518554688	1149.02685546875	1137.751098632812	153.2212219238281	1121.399780273438	1386.349975585938	118.2887420654297	1095.446411132812	1308.631591796875	-34.09685134887695	1199.646606445312	1245.159423828125	150.9183044433594	1027.796997070312	1347.148315429688	158.7308349609375	958.576416015625	1363.383056640625	85.62108612060547	900.464111328125	1245.797729492188	128.6143188476562	862.7298583984375	1052.5146484375	106.1741333007812	936.6720581054688	1023.34326171875	143.5759582519531	871.180908203125	921.2255859375	-78.46208953857422	813.8374633789062	882.4931030273438	-32.86784362792969	841.6943359375	970.2314453125	55.11817169189453	847.8147583007812	772.2664794921875	-177.2411041259766	811.461669921875	826.9268188476562	-89.71217346191406	837.3180541992188	850.5679321289062	-142.6405487060547	1263.359252929688	1372.258544921875	31.99078178405762	1323.30517578125	1311.339233398438	40.44095230102539	1380.182250976562	1054.069091796875	55.68270111083984	1289.869262695312	1041.459594726562	79.82428741455078	1373.705932617188	821.5908203125	-37.57144546508789	1436.110961914062	825.8505859375	2.128172636032104	1403.58251953125	991.6233520507812	36.8484992980957	1391.166381835938	650.9710693359375	3.349279165267944	1401.475219726562	718.0413208007812	-33.29495239257812	1443.353881835938	738.6627197265625	18.73150253295898	1191.3583984375	1575.623779296875	56.90562057495117	1010.138244628906	1575.63818359375	-28.01400375366211	1128.395629882812	1590.049560546875	-59.69972229003906	1043.129638671875	1552.8798828125	115.7174072265625	961.6574096679688	929.7720947265625	104.6509475708008	1305.108154296875	949.0399169921875	-4.790276050567627	1210.291381835938	956.00537109375	-109.8112487792969	964.4071655273438	932.4285888671875	-18.23953819274902	1048.669555664062	440.1194763183594	26.82629776000977	1012.781616210938	579.6117553710938	43.24875640869141	1170.19091796875	31.2706184387207	133.779052734375	1107.091552734375	212.4809112548828	78.97783660888672	1225.165283203125	27.36158180236816	-84.01502227783203	1259.288208007812	31.20388031005859	-4.792965888977051	1154.017333984375	31.37956428527832	8.078325271606445	1226.793334960938	30.86094284057617	170.9806518554688	1253.171142578125	498.9213562011719	-205.7584686279297	1278.484008789062	745.964111328125	-141.1119079589844	1321.460327148438	73.82582092285156	-169.4615631103516	1261.051147460938	370.6390686035156	-220.2175445556641	1228.019653320312	64.06660461425781	-323.0462646484375	1211.11376953125	52.00039672851562	-248.7118530273438	1311.771728515625	58.98879241943359	-252.8095550537109	1285.96826171875	49.47196578979492	-88.16980743408203	
286	2.85	1222.86474609375	956.9982299804688	103.6990737915039	1098.104370117188	945.5504760742188	148.0502777099609	1157.565063476562	1033.60693359375	128.9890594482422	1084.541381835938	1188.307495117188	-95.39230346679688	1150.281616210938	1137.103149414062	144.4120788574219	1121.237182617188	1385.482055664062	109.0612716674805	1092.916870117188	1307.51123046875	-42.71246719360352	1200.026245117188	1244.488403320312	140.8200225830078	1028.339965820312	1346.305786132812	151.1719818115234	957.8419189453125	1362.043579101562	79.12035369873047	900.567626953125	1244.406127929688	122.7882919311523	862.257568359375	1051.473266601562	99.34970092773438	936.4403076171875	1021.608825683594	135.7620544433594	868.6658325195312	925.7906494140625	-88.53998565673828	811.4635620117188	885.8184204101562	-43.62738037109375	840.47119140625	970.8934936523438	46.75347900390625	844.015380859375	780.0177001953125	-191.7307281494141	808.93701171875	833.8176879882812	-101.3699035644531	833.9871215820312	857.2352905273438	-154.5531616210938	1261.827392578125	1371.332397460938	20.5025806427002	1321.843627929688	1310.66748046875	28.49616622924805	1378.723999023438	1053.738891601562	46.42434310913086	1288.577392578125	1041.448974609375	71.45109558105469	1371.641235351562	819.454345703125	-42.56781387329102	1434.547729492188	824.7596435546875	-3.776427745819092	1402.047241210938	991.06103515625	28.41112899780273	1390.13671875	649.4171752929688	1.215665459632874	1399.671630859375	715.981689453125	-36.21693801879883	1442.29296875	737.973876953125	14.6347541809082	1190.580688476562	1574.275634765625	46.69011688232422	1008.418151855469	1574.866821289062	-36.24517440795898	1126.296752929688	1588.761108398438	-69.12410736083984	1042.94873046875	1552.1015625	107.2020416259766	962.0911254882812	929.0718383789062	98.93455505371094	1303.17919921875	947.394775390625	-16.78152847290039	1206.49267578125	954.8521728515625	-120.4118347167969	962.3994750976562	931.33837890625	-24.29976844787598	1048.135620117188	439.2218627929688	22.27716064453125	1011.724060058594	578.9309692382812	38.25605773925781	1170.171630859375	31.25932312011719	133.6674346923828	1106.87109375	212.1614532470703	76.65515899658203	1225.028686523438	27.31778717041016	-84.09317779541016	1259.202270507812	30.99953269958496	-4.700782775878906	1153.775634765625	31.45340156555176	8.075509071350098	1226.781616210938	30.95178985595703	170.9284210205078	1248.182250976562	498.0350341796875	-217.7022705078125	1274.558715820312	744.6077880859375	-152.4124908447266	1307.672485351562	70.03281402587891	-204.7181854248047	1253.331665039062	370.5946044921875	-237.8394622802734	1208.937377929688	70.50852203369141	-354.9640502929688	1194.12744140625	55.17167282104492	-280.7974243164062	1294.830810546875	59.40771484375	-288.4127502441406	1274.3603515625	42.54346466064453	-123.2537155151367	
287	2.86	1223.296020507812	956.1830444335938	92.80917358398438	1099.33203125	944.7156372070312	139.45458984375	1158.45947265625	1032.726806640625	119.4711456298828	1081.169555664062	1186.959350585938	-103.7113265991211	1151.52490234375	1136.306274414062	135.5262603759766	1120.94189453125	1384.469848632812	99.79522705078125	1090.348999023438	1306.247436523438	-51.33887481689453	1200.277465820312	1243.679443359375	130.6950378417969	1028.774658203125	1345.308227539062	143.5365447998047	957.0133056640625	1360.562255859375	72.54213714599609	900.6091918945312	1242.804565429688	116.8102416992188	861.8999633789062	1050.216430664062	92.47991180419922	936.3213500976562	1019.716674804688	127.8904342651367	866.2418823242188	929.9279174804688	-98.32437896728516	809.1344604492188	888.846435546875	-54.07513809204102	839.3248901367188	971.2953491210938	38.47779083251953	840.2784423828125	787.3009643554688	-205.5452728271484	806.4686279296875	840.3013305664062	-112.5386810302734	830.7257080078125	863.4303588867188	-165.9892425537109	1260.170166015625	1370.290893554688	9.054726600646973	1320.260131835938	1309.911254882812	16.60214805603027	1377.224975585938	1053.36181640625	37.17815017700195	1287.214965820312	1041.314086914062	62.99525833129883	1369.697631835938	817.5956420898438	-48.06805801391602	1432.998046875	823.7062377929688	-10.02439880371094	1400.493408203125	990.4465942382812	19.9180965423584	1389.200439453125	648.0703125	-1.97077202796936	1397.967651367188	714.1581420898438	-39.84782409667969	1441.252319335938	737.304931640625	9.943860054016113	1189.72802734375	1572.758178710938	36.48967361450195	1006.637084960938	1573.98388671875	-44.4327392578125	1124.126831054688	1587.380981445312	-78.52458953857422	1042.7265625	1551.130126953125	98.69496917724609	962.375732421875	928.2317504882812	93.15923309326172	1301.06591796875	945.585205078125	-28.73480796813965	1202.5986328125	953.5418090820312	-130.9738311767578	960.3198852539062	930.0260009765625	-30.58280563354492	1047.735961914062	438.136962890625	17.3582878112793	1010.609436035156	578.0919799804688	32.94345092773438	1170.1484375	31.20456123352051	133.5640869140625	1106.618286132812	211.7794036865234	74.08733367919922	1224.893310546875	27.25737571716309	-84.16547393798828	1259.152221679688	30.80757141113281	-4.667885780334473	1153.532958984375	31.52531814575195	8.063517570495605	1226.743774414062	30.98404884338379	170.8650970458984	1243.459594726562	496.7568969726562	-229.4483184814453	1270.635498046875	742.9501953125	-163.3787384033203	1292.6181640625	67.09314727783203	-238.6161346435547	1245.5712890625	370.5424499511719	-254.867919921875	1188.872924804688	77.35813140869141	-384.7730407714844	1176.119873046875	59.13860702514648	-310.9127807617188	1276.660400390625	60.47473907470703	-322.3294982910156	1261.483764648438	36.87167739868164	-157.0257415771484	
